<svg width="1007" height="351" viewBox="0 0 1007 351" fill="none" xmlns="http://www.w3.org/2000/svg">
<path d="M159.136 51.8854C158.922 57.3993 158.095 64.7818 157.39 67.5694C156.379 71.4291 153.285 75.9322 148.353 80.8028C143.085 85.9797 134.906 90.2377 122.04 94.4038C118.486 95.5678 111.012 98.6005 107.857 100.193C101.638 103.318 93.0305 110.394 90.2736 114.621C88.3131 117.654 85.7093 122.8 85.0966 124.945C84.729 126.201 84.3002 129.08 84.0551 132.174C83.8407 135.023 83.5956 137.412 83.5037 137.474C83.3199 137.657 81.1756 136.861 79.0007 135.789C74.5589 133.583 71.4038 133.154 59.3957 133.154C46.3155 133.154 44.6919 133.461 35.1958 137.902C30.0188 140.322 28.0277 141.548 24.076 144.611C20.8902 147.092 18.7459 149.114 17.2143 151.136C16.7548 151.748 15.3763 153.403 14.2123 154.812C10.1687 159.59 10.3219 159.345 6.2171 167.647C3.21509 173.712 1.83661 178.215 0.733827 185.414C-0.185158 191.571 -0.246424 195.4 0.580662 201.496C1.95914 211.727 3.58268 216.874 7.44242 223.184C8.05507 224.195 8.5452 225.145 8.5452 225.328C8.5452 226.064 11.7923 230.291 15.1925 233.936C22.6669 241.962 29.8656 247.078 37.6464 249.865L39.9438 250.662L130.678 250.631C219.697 250.601 221.474 250.601 223.771 250.018C228.029 248.916 235.259 244.78 240.283 240.522C249.258 232.925 255.078 224.072 259.152 211.666C260.96 206.122 261.817 201.282 262.093 194.726C262.399 187.129 261.817 183.698 258.662 174.172C256.61 167.953 255.63 166.023 251.096 159.315C247.879 154.536 246.96 153.372 243.53 150.094C236.913 143.723 228.366 138.239 220.524 135.329C215.286 133.399 213.938 133.154 205.759 132.725C198.162 132.297 190.719 133.093 185.235 134.87C182.54 135.758 177.945 137.933 177.914 138.331C177.822 139.22 178.067 141.241 178.772 145.867C179.905 153.249 179.997 157.324 179.17 161.245C178.098 166.238 175.892 171.537 172.798 176.438C171.696 178.185 171.052 178.858 169.796 179.563C168.939 180.084 168.112 180.482 167.989 180.482C167.867 180.482 167.836 179.747 167.928 178.858C168.081 177.296 166.856 167.065 165.814 161.367C165.232 158.059 163.884 154.168 162.781 152.575C161.709 151.074 161.679 148.563 162.659 146.663C164.742 142.65 165.385 141.241 165.845 139.587C166.151 138.576 166.917 136.34 167.56 134.625C169.153 130.428 171.389 122.708 171.941 119.523C173.748 108.954 173.932 95.7516 172.431 83.9886C172.247 82.7327 171.849 79.3324 171.512 76.4836C170.287 66.5279 167.499 55.3776 165.171 51.2115C163.854 48.914 160.79 46.0039 159.626 46.0039C159.473 46.0039 159.259 48.669 159.136 51.8854Z" fill="url(#paint0_linear_1171_10)"/>
<path d="M29.0691 262.796C27.6906 263.071 27.4455 263.47 27.6599 265.338C27.9969 268.156 29.0384 271.158 31.4584 276.029C33.4495 280.011 35.41 281.941 39.5455 283.963C43.3746 285.832 45.9784 286.506 49.5011 286.506C51.0022 286.506 89.14 286.444 134.293 286.383L216.389 286.23L219.544 285.158C223.679 283.718 224.905 282.983 227.325 280.41C230.112 277.469 231.001 276.06 232.257 272.69C233.39 269.627 234.523 264.174 234.186 263.316C234.033 262.888 232.012 262.857 212.008 263.01C134.783 263.653 72.8127 263.562 35.8083 262.765C32.5306 262.704 29.4979 262.704 29.0691 262.796Z" fill="url(#paint1_linear_1171_10)"/>
<path d="M66.717 301.881C64.1439 302.861 61.2338 305.434 59.9778 307.885C59.0588 309.661 58.8444 313.123 59.549 314.777C60.4679 316.952 65.216 320.965 67.5135 321.516C68.0036 321.639 89.3547 321.731 114.994 321.731C140.603 321.7 168.265 321.823 176.474 322.006C192.832 322.313 194.119 322.251 197.182 320.75C203.462 317.687 204.565 309.478 199.388 304.301C196.815 301.727 202.788 301.972 138.582 301.942C107.091 301.942 78.2656 301.819 74.559 301.697C69.137 301.513 67.6054 301.544 66.717 301.881Z" fill="url(#paint2_linear_1171_10)"/>
<path d="M398.765 292.3C389.165 292.3 380.665 290.7 373.265 287.5C365.865 284.1 360.565 279.8 357.365 274.6V258.7C361.165 267.3 366.365 273.7 372.965 277.9C379.565 281.9 387.965 283.9 398.165 283.9C407.965 283.9 415.865 280.9 421.865 274.9C427.865 268.7 430.865 260.8 430.865 251.2C430.865 243 429.165 236.7 425.765 232.3C422.365 227.7 416.865 223.1 409.265 218.5L397.865 211.9C389.665 206.9 383.465 203 379.265 200.2C375.265 197.2 372.065 193.9 369.665 190.3C367.265 186.5 366.065 182.1 366.065 177.1C366.065 169.1 368.865 162.7 374.465 157.9C380.065 153.1 387.365 150.7 396.365 150.7C407.365 150.7 416.565 153.2 423.965 158.2V171.4C417.765 163.2 408.865 159.1 397.265 159.1C390.865 159.1 385.665 160.7 381.665 163.9C377.665 167.1 375.665 171.2 375.665 176.2C375.665 180.6 376.865 184.5 379.265 187.9C381.665 191.1 384.965 194.1 389.165 196.9C393.565 199.7 400.765 203.9 410.765 209.5C420.965 215.3 428.465 221.3 433.265 227.5C438.065 233.5 440.465 241.4 440.465 251.2C440.465 263.6 436.365 273.6 428.165 281.2C420.165 288.6 410.365 292.3 398.765 292.3ZM533.962 292.3C521.162 292.3 509.262 289.1 498.262 282.7C487.262 276.3 478.562 267.7 472.162 256.9C465.762 245.9 462.562 234.1 462.562 221.5C462.562 208.9 465.762 197.2 472.162 186.4C478.562 175.4 487.262 166.7 498.262 160.3C509.262 153.9 521.162 150.7 533.962 150.7C546.962 150.7 559.262 154.2 570.862 161.2C582.462 168 590.562 176.9 595.162 187.9V154H604.762V289H595.162V255.4C589.762 266.6 581.362 275.6 569.962 282.4C558.762 289 546.762 292.3 533.962 292.3ZM534.562 283.9C545.562 283.9 555.762 281.1 565.162 275.5C574.562 269.7 581.962 262.1 587.362 252.7C592.962 243.1 595.762 232.7 595.762 221.5C595.762 210.5 592.962 200.2 587.362 190.6C581.762 181 574.262 173.4 564.862 167.8C555.462 162 545.262 159.1 534.262 159.1C523.262 159.1 512.962 162 503.362 167.8C493.962 173.6 486.362 181.3 480.562 190.9C474.962 200.5 472.162 210.8 472.162 221.8C472.162 232.8 474.962 243.1 480.562 252.7C486.362 262.1 494.062 269.7 503.662 275.5C513.262 281.1 523.562 283.9 534.562 283.9ZM702.028 292.3C683.028 292.3 668.328 287.1 657.928 276.7C647.728 266.3 642.628 251.6 642.628 232.6V154H652.228V232.6C652.228 249 656.528 261.7 665.128 270.7C673.928 279.5 686.228 283.9 702.028 283.9C711.628 283.9 720.428 281.8 728.428 277.6C736.428 273.2 742.728 267.1 747.328 259.3C751.928 251.5 754.228 242.6 754.228 232.6V154H763.828V289H754.228V263.8C749.628 272.2 742.728 279.1 733.528 284.5C724.328 289.7 713.828 292.3 702.028 292.3ZM850.01 290.8C835.21 290.8 822.91 286.3 813.11 277.3C803.51 268.3 798.71 255.9 798.71 240.1V99.7H808.31V154H849.71V162.4H808.31V240.1C808.31 253.3 812.21 263.7 820.01 271.3C828.01 278.7 838.01 282.4 850.01 282.4V290.8ZM940.945 284.2C951.345 284.2 961.245 281.5 970.645 276.1C980.045 270.7 987.845 263.3 994.045 253.9V269.2C986.645 277.4 978.545 283.4 969.745 287.2C960.945 290.8 950.945 292.6 939.745 292.6C927.345 292.6 915.645 289.3 904.645 282.7C893.845 276.1 885.145 267.3 878.545 256.3C872.145 245.3 868.945 233.6 868.945 221.2C868.945 207.8 872.145 195.8 878.545 185.2C884.945 174.4 893.645 166 904.645 160C915.845 154 928.245 151 941.845 151C962.645 151 980.345 159.2 994.945 175.6L900.745 268.6C907.345 274 913.745 278 919.945 280.6C926.145 283 933.145 284.2 940.945 284.2ZM878.545 220.3C878.545 236.9 884.045 251.1 895.045 262.9L982.945 175.6C976.345 169.8 969.945 165.7 963.745 163.3C957.545 160.7 950.145 159.4 941.545 159.4C929.345 159.4 918.445 162.1 908.845 167.5C899.445 172.7 892.045 179.9 886.645 189.1C881.245 198.3 878.545 208.7 878.545 220.3ZM967.945 95.8H980.245L938.545 130.3H925.945L967.945 95.8Z" fill="white"/>
<defs>
<linearGradient id="paint0_linear_1171_10" x1="131.083" y1="46.0039" x2="131.083" y2="322.154" gradientUnits="userSpaceOnUse">
<stop stop-color="#F96820"/>
<stop offset="1" stop-color="#AC2B37"/>
</linearGradient>
<linearGradient id="paint1_linear_1171_10" x1="131.083" y1="46.0039" x2="131.083" y2="322.154" gradientUnits="userSpaceOnUse">
<stop stop-color="#F96820"/>
<stop offset="1" stop-color="#AC2B37"/>
</linearGradient>
<linearGradient id="paint2_linear_1171_10" x1="131.083" y1="46.0039" x2="131.083" y2="322.154" gradientUnits="userSpaceOnUse">
<stop stop-color="#F96820"/>
<stop offset="1" stop-color="#AC2B37"/>
</linearGradient>
</defs>
</svg>
