<svg width="1006" height="351" viewBox="0 0 1006 351" fill="none" xmlns="http://www.w3.org/2000/svg">
<path d="M159.136 51.8799C158.922 57.3938 158.095 64.7763 157.39 67.5639C156.379 71.4236 153.285 75.9266 148.353 80.7973C143.085 85.9742 134.906 90.2322 122.04 94.3982C118.486 95.5623 111.012 98.5949 107.857 100.188C101.638 103.312 93.0305 110.389 90.2736 114.616C88.3131 117.649 85.7093 122.795 85.0966 124.939C84.729 126.195 84.3002 129.075 84.0551 132.168C83.8407 135.017 83.5956 137.407 83.5037 137.468C83.3199 137.652 81.1756 136.855 79.0007 135.783C74.5589 133.578 71.4038 133.149 59.3957 133.149C46.3155 133.149 44.6919 133.455 35.1958 137.897C30.0188 140.317 28.0277 141.542 24.076 144.605C20.8902 147.087 18.7459 149.108 17.2143 151.13C16.7548 151.743 15.3763 153.397 14.2123 154.806C10.1687 159.585 10.3219 159.34 6.2171 167.641C3.21509 173.707 1.83661 178.21 0.733827 185.408C-0.185158 191.566 -0.246424 195.395 0.580662 201.491C1.95914 211.722 3.58268 216.868 7.44242 223.179C8.05507 224.189 8.5452 225.139 8.5452 225.323C8.5452 226.058 11.7923 230.285 15.1925 233.931C22.6669 241.957 29.8656 247.072 37.6464 249.86L39.9438 250.656L130.678 250.626C219.697 250.595 221.474 250.595 223.771 250.013C228.029 248.91 235.259 244.775 240.283 240.517C249.258 232.92 255.078 224.067 259.152 211.661C260.96 206.116 261.817 201.276 262.093 194.721C262.399 187.124 261.817 183.693 258.662 174.166C256.61 167.948 255.63 166.018 251.096 159.309C247.879 154.53 246.96 153.366 243.53 150.089C236.913 143.717 228.366 138.234 220.524 135.324C215.286 133.394 213.938 133.149 205.759 132.72C198.162 132.291 190.719 133.087 185.235 134.864C182.54 135.753 177.945 137.927 177.914 138.326C177.822 139.214 178.067 141.236 178.772 145.861C179.905 153.244 179.997 157.318 179.17 161.239C178.098 166.232 175.892 171.532 172.798 176.433C171.696 178.179 171.052 178.853 169.796 179.557C168.939 180.078 168.112 180.476 167.989 180.476C167.867 180.476 167.836 179.741 167.928 178.853C168.081 177.291 166.856 167.059 165.814 161.362C165.232 158.053 163.884 154.163 162.781 152.57C161.709 151.069 161.679 148.557 162.659 146.658C164.742 142.645 165.385 141.236 165.845 139.582C166.151 138.571 166.917 136.335 167.56 134.619C169.153 130.422 171.389 122.703 171.941 119.517C173.748 108.949 173.932 95.7461 172.431 83.9831C172.247 82.7271 171.849 79.3269 171.512 76.478C170.287 66.5224 167.499 55.372 165.171 51.2059C163.854 48.9085 160.79 45.9984 159.626 45.9984C159.473 45.9984 159.259 48.6634 159.136 51.8799Z" fill="black"/>
<path d="M29.0691 262.79C27.6906 263.066 27.4455 263.464 27.6599 265.333C27.9969 268.151 29.0384 271.153 31.4584 276.024C33.4495 280.006 35.41 281.936 39.5455 283.957C43.3746 285.826 45.9784 286.5 49.5011 286.5C51.0022 286.5 89.14 286.439 134.293 286.377L216.389 286.224L219.544 285.152C223.679 283.712 224.905 282.977 227.325 280.404C230.112 277.463 231.001 276.054 232.257 272.685C233.39 269.621 234.523 264.169 234.186 263.311C234.033 262.882 232.012 262.851 212.008 263.005C134.783 263.648 72.8127 263.556 35.8083 262.76C32.5306 262.698 29.4979 262.698 29.0691 262.79Z" fill="black"/>
<path d="M66.717 301.875C64.1439 302.855 61.2338 305.428 59.9778 307.879C59.0588 309.656 58.8444 313.117 59.5489 314.771C60.4679 316.946 65.216 320.959 67.5135 321.511C68.0036 321.633 89.3547 321.725 114.994 321.725C140.603 321.694 168.265 321.817 176.474 322.001C192.832 322.307 194.119 322.246 197.182 320.745C203.462 317.682 204.565 309.472 199.388 304.295C196.815 301.722 202.788 301.967 138.582 301.936C107.091 301.936 78.2656 301.814 74.559 301.691C69.137 301.507 67.6054 301.538 66.717 301.875Z" fill="black"/>
<path d="M398.6 292.3C389 292.3 380.5 290.7 373.1 287.5C365.7 284.1 360.4 279.8 357.2 274.6V258.7C361 267.3 366.2 273.7 372.8 277.9C379.4 281.9 387.8 283.9 398 283.9C407.8 283.9 415.7 280.9 421.7 274.9C427.7 268.7 430.7 260.8 430.7 251.2C430.7 243 429 236.7 425.6 232.3C422.2 227.7 416.7 223.1 409.1 218.5L397.7 211.9C389.5 206.9 383.3 203 379.1 200.2C375.1 197.2 371.9 193.9 369.5 190.3C367.1 186.5 365.9 182.1 365.9 177.1C365.9 169.1 368.7 162.7 374.3 157.9C379.9 153.1 387.2 150.7 396.2 150.7C407.2 150.7 416.4 153.2 423.8 158.2V171.4C417.6 163.2 408.7 159.1 397.1 159.1C390.7 159.1 385.5 160.7 381.5 163.9C377.5 167.1 375.5 171.2 375.5 176.2C375.5 180.6 376.7 184.5 379.1 187.9C381.5 191.1 384.8 194.1 389 196.9C393.4 199.7 400.6 203.9 410.6 209.5C420.8 215.3 428.3 221.3 433.1 227.5C437.9 233.5 440.3 241.4 440.3 251.2C440.3 263.6 436.2 273.6 428 281.2C420 288.6 410.2 292.3 398.6 292.3ZM533.797 292.3C520.997 292.3 509.097 289.1 498.097 282.7C487.097 276.3 478.397 267.7 471.997 256.9C465.597 245.9 462.397 234.1 462.397 221.5C462.397 208.9 465.597 197.2 471.997 186.4C478.397 175.4 487.097 166.7 498.097 160.3C509.097 153.9 520.997 150.7 533.797 150.7C546.797 150.7 559.097 154.2 570.697 161.2C582.297 168 590.397 176.9 594.997 187.9V154H604.597V289H594.997V255.4C589.597 266.6 581.197 275.6 569.797 282.4C558.597 289 546.597 292.3 533.797 292.3ZM534.397 283.9C545.397 283.9 555.597 281.1 564.997 275.5C574.397 269.7 581.797 262.1 587.197 252.7C592.797 243.1 595.597 232.7 595.597 221.5C595.597 210.5 592.797 200.2 587.197 190.6C581.597 181 574.097 173.4 564.697 167.8C555.297 162 545.097 159.1 534.097 159.1C523.097 159.1 512.797 162 503.197 167.8C493.797 173.6 486.197 181.3 480.397 190.9C474.797 200.5 471.997 210.8 471.997 221.8C471.997 232.8 474.797 243.1 480.397 252.7C486.197 262.1 493.897 269.7 503.497 275.5C513.097 281.1 523.397 283.9 534.397 283.9ZM701.863 292.3C682.863 292.3 668.163 287.1 657.763 276.7C647.563 266.3 642.463 251.6 642.463 232.6V154H652.063V232.6C652.063 249 656.363 261.7 664.963 270.7C673.763 279.5 686.063 283.9 701.863 283.9C711.463 283.9 720.263 281.8 728.263 277.6C736.263 273.2 742.563 267.1 747.163 259.3C751.763 251.5 754.063 242.6 754.063 232.6V154H763.663V289H754.063V263.8C749.463 272.2 742.563 279.1 733.363 284.5C724.163 289.7 713.663 292.3 701.863 292.3ZM849.845 290.8C835.045 290.8 822.745 286.3 812.945 277.3C803.345 268.3 798.545 255.9 798.545 240.1V99.7H808.145V154H849.545V162.4H808.145V240.1C808.145 253.3 812.045 263.7 819.845 271.3C827.845 278.7 837.845 282.4 849.845 282.4V290.8ZM940.78 284.2C951.18 284.2 961.08 281.5 970.48 276.1C979.88 270.7 987.68 263.3 993.88 253.9V269.2C986.48 277.4 978.38 283.4 969.58 287.2C960.78 290.8 950.78 292.6 939.58 292.6C927.18 292.6 915.48 289.3 904.48 282.7C893.68 276.1 884.98 267.3 878.38 256.3C871.98 245.3 868.78 233.6 868.78 221.2C868.78 207.8 871.98 195.8 878.38 185.2C884.78 174.4 893.48 166 904.48 160C915.68 154 928.08 151 941.68 151C962.48 151 980.18 159.2 994.78 175.6L900.58 268.6C907.18 274 913.58 278 919.78 280.6C925.98 283 932.98 284.2 940.78 284.2ZM878.38 220.3C878.38 236.9 883.88 251.1 894.88 262.9L982.78 175.6C976.18 169.8 969.78 165.7 963.58 163.3C957.38 160.7 949.98 159.4 941.38 159.4C929.18 159.4 918.28 162.1 908.68 167.5C899.28 172.7 891.88 179.9 886.48 189.1C881.08 198.3 878.38 208.7 878.38 220.3ZM967.78 95.8H980.08L938.38 130.3H925.78L967.78 95.8Z" fill="black"/>
</svg>
