<svg width="263" height="277" viewBox="0 0 263 277" fill="none" xmlns="http://www.w3.org/2000/svg">
<path d="M159.136 5.87987C158.922 11.3938 158.095 18.7763 157.39 21.5639C156.379 25.4236 153.285 29.9266 148.353 34.7973C143.085 39.9742 134.906 44.2322 122.04 48.3982C118.486 49.5623 111.012 52.5949 107.857 54.1878C101.638 57.3124 93.0305 64.3886 90.2736 68.6159C88.3131 71.6485 85.7093 76.7949 85.0966 78.9391C84.729 80.1951 84.3002 83.0746 84.0551 86.1685C83.8407 89.0173 83.5956 91.4067 83.5037 91.468C83.3199 91.6518 81.1756 90.8553 79.0007 89.7832C74.5589 87.5776 71.4038 87.1487 59.3957 87.1487C46.3155 87.1487 44.6919 87.4551 35.1958 91.8968C30.0188 94.3168 28.0277 95.5421 24.076 98.6054C20.8902 101.087 18.7459 103.108 17.2143 105.13C16.7548 105.743 15.3763 107.397 14.2123 108.806C10.1687 113.585 10.3219 113.34 6.2171 121.641C3.21509 127.707 1.83661 132.21 0.733827 139.408C-0.185158 145.566 -0.246424 149.395 0.580662 155.491C1.95914 165.722 3.58268 170.868 7.44242 177.179C8.05507 178.189 8.5452 179.139 8.5452 179.323C8.5452 180.058 11.7923 184.285 15.1925 187.931C22.6669 195.957 29.8656 201.072 37.6464 203.86L39.9438 204.656L130.678 204.626C219.697 204.595 221.474 204.595 223.771 204.013C228.029 202.91 235.259 198.775 240.283 194.517C249.258 186.92 255.078 178.067 259.152 165.661C260.96 160.116 261.817 155.276 262.093 148.721C262.399 141.124 261.817 137.693 258.662 128.166C256.61 121.948 255.63 120.018 251.096 113.309C247.879 108.53 246.96 107.366 243.53 104.089C236.913 97.7171 228.366 92.2338 220.524 89.3237C215.286 87.3938 213.938 87.1487 205.759 86.7199C198.162 86.291 190.719 87.0875 185.235 88.8642C182.54 89.7525 177.945 91.9275 177.914 92.3257C177.822 93.214 178.067 95.2358 178.772 99.8614C179.905 107.244 179.997 111.318 179.17 115.239C178.098 120.232 175.892 125.532 172.798 130.433C171.696 132.179 171.052 132.853 169.796 133.557C168.939 134.078 168.112 134.476 167.989 134.476C167.867 134.476 167.836 133.741 167.928 132.853C168.081 131.291 166.856 121.059 165.814 115.362C165.232 112.053 163.884 108.163 162.781 106.57C161.709 105.069 161.679 102.557 162.659 100.658C164.742 96.6449 165.385 95.2358 165.845 93.5816C166.151 92.5708 166.917 90.3346 167.56 88.6191C169.153 84.4224 171.389 76.703 171.941 73.5171C173.748 62.9488 173.932 49.7461 172.431 37.9831C172.247 36.7271 171.849 33.3269 171.512 30.478C170.287 20.5224 167.499 9.37201 165.171 5.20595C163.854 2.90849 160.79 -0.00163273 159.626 -0.00163273C159.473 -0.00163273 159.259 2.66342 159.136 5.87987Z" fill="black"/>
<path d="M29.0691 216.79C27.6906 217.066 27.4455 217.464 27.6599 219.333C27.9969 222.151 29.0384 225.153 31.4584 230.024C33.4495 234.006 35.41 235.936 39.5455 237.957C43.3746 239.826 45.9784 240.5 49.5011 240.5C51.0022 240.5 89.14 240.439 134.293 240.377L216.389 240.224L219.544 239.152C223.679 237.712 224.905 236.977 227.325 234.404C230.112 231.463 231.001 230.054 232.257 226.685C233.39 223.621 234.523 218.169 234.186 217.311C234.033 216.882 232.012 216.851 212.008 217.005C134.783 217.648 72.8127 217.556 35.8083 216.76C32.5306 216.698 29.4979 216.698 29.0691 216.79Z" fill="black"/>
<path d="M66.717 255.875C64.1439 256.855 61.2338 259.428 59.9778 261.879C59.0588 263.656 58.8444 267.117 59.5489 268.771C60.4679 270.946 65.216 274.959 67.5135 275.511C68.0036 275.633 89.3547 275.725 114.994 275.725C140.603 275.694 168.265 275.817 176.474 276.001C192.832 276.307 194.119 276.246 197.182 274.745C203.462 271.682 204.565 263.472 199.388 258.295C196.815 255.722 202.788 255.967 138.582 255.936C107.091 255.936 78.2656 255.814 74.559 255.691C69.137 255.507 67.6054 255.538 66.717 255.875Z" fill="black"/>
</svg>
