<svg width="263" height="277" viewBox="0 0 263 277" fill="none" xmlns="http://www.w3.org/2000/svg">
<path d="M159.136 5.88541C158.922 11.3993 158.095 18.7818 157.39 21.5694C156.379 25.4291 153.285 29.9322 148.353 34.8028C143.085 39.9797 134.906 44.2377 122.04 48.4038C118.486 49.5678 111.012 52.6005 107.857 54.1934C101.638 57.3179 93.0305 64.3941 90.2736 68.6214C88.3131 71.6541 85.7093 76.8004 85.0966 78.9447C84.729 80.2006 84.3002 83.0801 84.0551 86.174C83.8407 89.0229 83.5956 91.4122 83.5037 91.4735C83.3199 91.6573 81.1756 90.8609 79.0007 89.7887C74.5589 87.5831 71.4038 87.1543 59.3957 87.1543C46.3155 87.1543 44.6919 87.4606 35.1958 91.9024C30.0188 94.3224 28.0277 95.5477 24.076 98.611C20.8902 101.092 18.7459 103.114 17.2143 105.136C16.7548 105.748 15.3763 107.403 14.2123 108.812C10.1687 113.59 10.3219 113.345 6.2171 121.647C3.21509 127.712 1.83661 132.215 0.733827 139.414C-0.185158 145.571 -0.246424 149.4 0.580662 155.496C1.95914 165.727 3.58268 170.874 7.44242 177.184C8.05507 178.195 8.5452 179.145 8.5452 179.328C8.5452 180.064 11.7923 184.291 15.1925 187.936C22.6669 195.962 29.8656 201.078 37.6464 203.865L39.9438 204.662L130.678 204.631C219.697 204.601 221.474 204.601 223.771 204.018C228.029 202.916 235.259 198.78 240.283 194.522C249.258 186.925 255.078 178.072 259.152 165.666C260.96 160.122 261.817 155.282 262.093 148.726C262.399 141.129 261.817 137.698 258.662 128.172C256.61 121.953 255.63 120.023 251.096 113.315C247.879 108.536 246.96 107.372 243.53 104.094C236.913 97.7226 228.366 92.2393 220.524 89.3292C215.286 87.3993 213.938 87.1543 205.759 86.7254C198.162 86.2966 190.719 87.093 185.235 88.8697C182.54 89.7581 177.945 91.933 177.914 92.3312C177.822 93.2196 178.067 95.2413 178.772 99.8669C179.905 107.249 179.997 111.324 179.17 115.245C178.098 120.238 175.892 125.537 172.798 130.438C171.696 132.185 171.052 132.858 169.796 133.563C168.939 134.084 168.112 134.482 167.989 134.482C167.867 134.482 167.836 133.747 167.928 132.858C168.081 131.296 166.856 121.065 165.814 115.367C165.232 112.059 163.884 108.168 162.781 106.575C161.709 105.074 161.679 102.563 162.659 100.663C164.742 96.6505 165.385 95.2413 165.845 93.5872C166.151 92.5763 166.917 90.3401 167.56 88.6247C169.153 84.428 171.389 76.7085 171.941 73.5227C173.748 62.9544 173.932 49.7516 172.431 37.9886C172.247 36.7327 171.849 33.3324 171.512 30.4836C170.287 20.5279 167.499 9.37755 165.171 5.21149C163.854 2.91403 160.79 0.00390625 159.626 0.00390625C159.473 0.00390625 159.259 2.66896 159.136 5.88541Z" fill="url(#paint0_linear_1171_18)"/>
<path d="M29.0691 216.796C27.6906 217.071 27.4455 217.47 27.6599 219.338C27.9969 222.156 29.0384 225.158 31.4584 230.029C33.4495 234.011 35.41 235.941 39.5455 237.963C43.3746 239.832 45.9784 240.506 49.5011 240.506C51.0022 240.506 89.14 240.444 134.293 240.383L216.389 240.23L219.544 239.158C223.679 237.718 224.905 236.983 227.325 234.41C230.112 231.469 231.001 230.06 232.257 226.69C233.39 223.627 234.523 218.174 234.186 217.316C234.033 216.888 232.012 216.857 212.008 217.01C134.783 217.653 72.8127 217.562 35.8083 216.765C32.5306 216.704 29.4979 216.704 29.0691 216.796Z" fill="url(#paint1_linear_1171_18)"/>
<path d="M66.717 255.881C64.1439 256.861 61.2338 259.434 59.9778 261.885C59.0588 263.661 58.8444 267.123 59.549 268.777C60.4679 270.952 65.216 274.965 67.5135 275.516C68.0036 275.639 89.3547 275.731 114.994 275.731C140.603 275.7 168.265 275.823 176.474 276.006C192.832 276.313 194.119 276.251 197.182 274.75C203.462 271.687 204.565 263.478 199.388 258.301C196.815 255.727 202.788 255.972 138.582 255.942C107.091 255.942 78.2656 255.819 74.559 255.697C69.137 255.513 67.6054 255.544 66.717 255.881Z" fill="url(#paint2_linear_1171_18)"/>
<defs>
<linearGradient id="paint0_linear_1171_18" x1="131.083" y1="0.00390625" x2="131.083" y2="276.154" gradientUnits="userSpaceOnUse">
<stop stop-color="#F96820"/>
<stop offset="1" stop-color="#AC2B37"/>
</linearGradient>
<linearGradient id="paint1_linear_1171_18" x1="131.083" y1="0.00390625" x2="131.083" y2="276.154" gradientUnits="userSpaceOnUse">
<stop stop-color="#F96820"/>
<stop offset="1" stop-color="#AC2B37"/>
</linearGradient>
<linearGradient id="paint2_linear_1171_18" x1="131.083" y1="0.00390625" x2="131.083" y2="276.154" gradientUnits="userSpaceOnUse">
<stop stop-color="#F96820"/>
<stop offset="1" stop-color="#AC2B37"/>
</linearGradient>
</defs>
</svg>
